<svg width="720" height="560" viewBox="0 0 720 560" fill="none" xmlns="http://www.w3.org/2000/svg">
  <defs>
    <filter id="softShadow" x="-20%" y="-20%" width="140%" height="140%">
      <feDropShadow dx="0" dy="12" stdDeviation="18" flood-color="#0F172A" flood-opacity="0.18"/>
    </filter>
  </defs>

  <rect width="720" height="560" rx="48" fill="#E2E8F0"/>

  <rect x="64" y="64" width="280" height="432" rx="32" fill="#FFFFFF" stroke="#94A3B8" stroke-width="2" filter="url(#softShadow)"/>
  <rect x="88" y="96" width="232" height="376" rx="24" fill="#E5EDFF" stroke="#64748B" stroke-width="2"/>

  <rect x="104" y="112" width="200" height="24" rx="12" fill="#C7D2FE"/>
  <rect x="104" y="148" width="160" height="22" rx="10" fill="#FFFFFF" stroke="#CBD5E1"/>
  <rect x="104" y="184" width="200" height="58" rx="14" fill="#FFFFFF" stroke="#CBD5E1"/>
  <rect x="104" y="254" width="200" height="58" rx="14" fill="#FFFFFF" stroke="#CBD5E1"/>
  <rect x="104" y="324" width="200" height="58" rx="14" fill="#FFFFFF" stroke="#CBD5E1"/>
  <rect x="116" y="198" width="6" height="30" rx="3" fill="#6366F1"/>
  <rect x="130" y="200" width="140" height="8" rx="4" fill="#475569"/>
  <rect x="130" y="216" width="120" height="8" rx="4" fill="#94A3B8"/>
  <rect x="116" y="268" width="6" height="30" rx="3" fill="#22D3EE"/>
  <rect x="130" y="270" width="140" height="8" rx="4" fill="#475569"/>
  <rect x="130" y="286" width="120" height="8" rx="4" fill="#94A3B8"/>
  <rect x="116" y="338" width="6" height="30" rx="3" fill="#F472B6"/>
  <rect x="130" y="340" width="140" height="8" rx="4" fill="#475569"/>
  <rect x="130" y="356" width="120" height="8" rx="4" fill="#94A3B8"/>

  <rect x="104" y="404" width="200" height="46" rx="14" fill="#FFFFFF" stroke="#CBD5E1"/>
  <circle cx="164" cy="427" r="6" fill="#475569"/>
  <circle cx="204" cy="427" r="6" fill="#475569"/>
  <circle cx="244" cy="427" r="6" fill="#475569"/>
  <circle cx="204" cy="454" r="16" fill="#64748B"/>

  <circle cx="474" cy="188" r="70" fill="#22D3EE"/>
  <circle cx="494" cy="168" r="70" fill="#A78BFA" fill-opacity="0.92"/>
  <circle cx="514" cy="208" r="70" fill="#F472B6" fill-opacity="0.9"/>

  <path
    d="M495 150V286C495 310 476 330 452 330C428 330 409 310 409 286C409 262 428 242 452 242C461 242 469 245 476 249V178L548 196V240C548 264 529 284 505 284C494 284 485 280 478 273"
    stroke="#0F172A"
    stroke-width="14"
    stroke-linecap="round"
    stroke-linejoin="round"
  />

  <rect x="392" y="360" width="256" height="80" rx="20" fill="#FFFFFF" stroke="#94A3B8" stroke-width="2" filter="url(#softShadow)"/>
  <circle cx="424" cy="400" r="22" fill="#F472B6"/>
  <path d="M416 389L442 400L416 411V389Z" fill="#0F172A"/>
  <rect x="460" y="388" width="156" height="8" rx="4" fill="#64748B"/>
  <rect x="460" y="406" width="110" height="8" rx="4" fill="#334155"/>
</svg>
